<?xml version="1.0" encoding="UTF-8"?>
<svg version="1.1" xmlns="http://www.w3.org/2000/svg" width="1280" height="1024">
<path d="M0 0 C8.53659743 -0.10467218 17.03629242 -0.03104133 25.5625 0.4375 C26.66730713 0.49635376 26.66730713 0.49635376 27.79443359 0.55639648 C29.86844354 0.67927108 31.93123395 0.80631946 34 1 C35.76875488 1.08519897 35.76875488 1.08519897 37.57324219 1.17211914 C41 2 41 2 42.70581055 4.37890625 C43.09551025 5.42949219 43.48520996 6.48007812 43.88671875 7.5625 C44.34369141 8.7393335 44.80066406 9.91616699 45.27148438 11.12866211 C45.50182373 11.75916473 45.73216309 12.38966736 45.96948242 13.03927612 C47.19436718 16.38412569 48.51706875 19.69055084 49.82421875 23.00390625 C50.21938187 24.0170565 50.21938187 24.0170565 50.62252808 25.05067444 C65.21708661 62.26196422 87.07179403 97.82838262 112 129 C112.49999512 129.6300293 112.99999023 130.26005859 113.51513672 130.90917969 C119.87472234 138.91038531 126.37281545 146.70143339 133.3671875 154.15625 C135.37199034 156.32167502 137.30774053 158.50991657 139.23046875 160.74609375 C143.42528635 165.56047113 147.91312405 170.05968581 152.4375 174.5625 C153.24509766 175.37396484 154.05269531 176.18542969 154.88476562 177.02148438 C159.7594251 181.88828784 164.754058 186.53693907 170 191 C170.67345459 191.57878906 171.34690918 192.15757812 172.04077148 192.75390625 C173.69130563 194.17223441 175.34526235 195.58657825 177 197 C176.39749902 200.61420091 175.41175655 203.61299108 173.84765625 206.921875 C173.40631348 207.85612305 172.9649707 208.79037109 172.51025391 209.75292969 C172.03249512 210.74196289 171.55473633 211.73099609 171.0625 212.75 C170.56669434 213.77770508 170.07088867 214.80541016 169.56005859 215.86425781 C161.73907541 231.86500773 152.21922114 246.43797157 142 261 C135.7431982 260.48124655 130.54809751 257.66442064 124.9375 255.0625 C110.94304228 248.71552823 96.58750992 243.78704254 82 239 C82 234.24851657 82.69059798 233.79241715 85.75 230.375 C92.24278107 222.76384515 97.56258264 214.3811274 103 206 C107.48291002 206.70482013 111.66266014 207.69879804 116 209 C117.98 205.7 119.96 202.4 122 199 C117.90924013 194.16546561 113.64702747 189.61888708 109.125 185.1875 C104.42686414 180.56459859 100.17915904 175.74040034 96.07421875 170.57421875 C94.1429873 168.17745505 92.13674693 165.89797717 90.0625 163.625 C85.03404578 158.0125324 80.49840885 152.03808012 76 146 C75.51402344 145.34918457 75.02804687 144.69836914 74.52734375 144.02783203 C46.61531807 106.46973866 23.57751722 65.25726206 6.9375 21.5 C6.47206787 20.27716309 6.00663574 19.05432617 5.52709961 17.79443359 C3.32933799 11.91056573 1.34457675 6.1379549 0 0 Z " fill="#31BA98" transform="translate(678,306)"/>
<path d="M0 0 C0.43868408 1.32390747 0.43868408 1.32390747 0.88623047 2.67456055 C1.97713152 5.96435635 3.06940499 9.25368993 4.16259766 12.54272461 C4.63449883 13.96344147 5.10586015 15.38433777 5.57666016 16.80541992 C6.25539884 18.85383319 6.9361081 20.90158274 7.6171875 22.94921875 C8.02565918 24.17987061 8.43413086 25.41052246 8.85498047 26.6784668 C9.56366743 28.73426342 10.31750103 30.77581926 11.14111328 32.78833008 C12.32291943 35.83153131 12.32437998 36.98335672 11 40 C8.48496312 42.23441171 5.80177468 44.14278717 3 46 C4.31226492 50.23962514 5.98193624 54.05233556 8 58 C8.92820557 57.78384033 9.85641113 57.56768066 10.81274414 57.3449707 C87.30622877 39.60815892 166.93475658 33.85118559 244 52 C242.62267001 56.10284014 240.76356341 58.66842384 237.8125 61.8125 C237.00683594 62.68132812 236.20117188 63.55015625 235.37109375 64.4453125 C234.58863281 65.28835938 233.80617188 66.13140625 233 67 C231.78604066 68.39094315 230.57715833 69.78634494 229.375 71.1875 C220.12622413 81.7881851 220.12622413 81.7881851 215 85 C212.6159668 85.09692383 212.6159668 85.09692383 209.94921875 84.70703125 C208.93794922 84.57103516 207.92667969 84.43503906 206.88476562 84.29492188 C205.82966797 84.13572266 204.77457031 83.97652344 203.6875 83.8125 C182.65052483 80.81511089 161.80831477 79.61730003 140.5625 79.6875 C139.38101379 79.68965515 138.19952759 79.6918103 136.98223877 79.69403076 C118.14331583 79.74897511 99.67102481 80.34184877 81 83 C79.94700714 83.14918884 79.94700714 83.14918884 78.8727417 83.3013916 C49.2481044 87.53429823 20.61331701 94.23204771 -7.85571289 103.4440918 C-8.94823868 103.79712372 -8.94823868 103.79712372 -10.06283569 104.1572876 C-11.43536537 104.60230867 -12.8069403 105.05028854 -14.17739868 105.50164795 C-18.78202898 107 -18.78202898 107 -21 107 C-22.10986328 105.50976562 -22.10986328 105.50976562 -23.3203125 103.40625 C-23.76906738 102.631604 -24.21782227 101.85695801 -24.68017578 101.05883789 C-25.15696777 100.21442139 -25.63375977 99.37000488 -26.125 98.5 C-26.6185498 97.63431396 -27.11209961 96.76862793 -27.62060547 95.87670898 C-35.64036334 81.6866051 -42.58794274 66.98198724 -49 52 C-49.31759277 51.27554688 -49.63518555 50.55109375 -49.96240234 49.8046875 C-51.15403024 46.92047539 -51.98986986 44.41473983 -52.06640625 41.28125 C-50.50957394 37.95088344 -47.9336092 36.43034112 -44.9375 34.5 C-33.76613276 26.914468 -23.51219344 18.19678216 -13.25 9.4375 C-12.39148438 8.70490967 -12.39148438 8.70490967 -11.515625 7.95751953 C-9.16862666 5.9370417 -6.92122292 3.91633428 -4.796875 1.66015625 C-3 0 -3 0 0 0 Z " fill="#2FBBA9" transform="translate(477,443)"/>
<path d="M0 0 C1.62832764 0.00398804 1.62832764 0.00398804 3.28955078 0.00805664 C12.5301646 0.05955999 21.7639993 0.28199703 31 0.5625 C32.01921539 0.59183624 32.01921539 0.59183624 33.059021 0.62176514 C34.99523359 0.67894938 36.93122059 0.74362173 38.8671875 0.80859375 C40.53563721 0.86358032 40.53563721 0.86358032 42.23779297 0.91967773 C44.68104836 1.0934286 46.78727587 1.42723014 49.125 2.125 C50.3433786 9.89588797 51.49096983 17.67312821 52.57128906 25.46435547 C53.96047451 35.46345273 55.3784648 45.39295629 57.609375 55.2421875 C58.14980654 58.26369112 58.1600039 61.0621587 58.125 64.125 C54.04149187 63.98382937 49.95824094 63.83618323 45.875 63.6875 C44.73546875 63.64818359 43.5959375 63.60886719 42.421875 63.56835938 C34.9660532 63.29300232 27.55394137 62.81521742 20.125 62.125 C18.55422093 57.09850697 17.67645271 52.36380078 17.125 47.125 C12.835 47.125 8.545 47.125 4.125 47.125 C3.41537109 49.59613281 3.41537109 49.59613281 2.69140625 52.1171875 C-9.72137149 94.9412707 -26.23583397 135.64549249 -48.875 174.125 C-49.349375 174.93308105 -49.82375 175.74116211 -50.3125 176.57373047 C-64.68933707 200.92143501 -81.36388445 223.76125023 -99.875 245.125 C-100.31666504 245.67816895 -100.75833008 246.23133789 -101.21337891 246.80126953 C-102.39335073 248.27591121 -103.63029584 249.7045729 -104.875 251.125 C-105.535 251.125 -106.195 251.125 -106.875 251.125 C-117.97521557 208.12445603 -117.97521557 208.12445603 -114.87744141 202.2253418 C-113.41268928 200.0799791 -111.85656921 198.04131485 -110.25 196 C-109.04495376 194.39825327 -107.84325162 192.79398638 -106.64453125 191.1875 C-105.70794678 189.94033203 -105.70794678 189.94033203 -104.75244141 188.66796875 C-63.60272806 132.93124389 -39.31071651 68.35497519 -24.875 1.125 C-16.56680443 0.39098956 -8.33994443 -0.03793909 0 0 Z " fill="#31B998" transform="translate(641.875,182.875)"/>
<path d="M0 0 C-2.04569678 7.55494115 -4.82414065 14.60431646 -8 21.75 C-8.65742187 23.25240234 -8.65742187 23.25240234 -9.328125 24.78515625 C-10.53588169 27.53171138 -11.74664013 30.27394228 -13 33 C-13.3727002 34.07443359 -13.74540039 35.14886719 -14.12939453 36.25585938 C-16 39 -16 39 -19.67919922 39.92480469 C-21.21917816 40.03654308 -22.76164349 40.11677678 -24.3046875 40.171875 C-25.54667404 40.25102394 -25.54667404 40.25102394 -26.81375122 40.33177185 C-29.50002204 40.49750018 -32.18661328 40.62372059 -34.875 40.75 C-36.70460934 40.85670144 -38.53404163 40.96648318 -40.36328125 41.0793457 C-43.95098876 41.29926267 -47.5390561 41.50759779 -51.12792969 41.70751953 C-57.10023881 42.05161448 -63.04919123 42.57888225 -69 43.1875 C-69.84546387 43.27161133 -70.69092773 43.35572266 -71.56201172 43.44238281 C-73.37509337 43.62412369 -75.18763854 43.81121235 -77 44 C-76.84014618 44.57525421 -76.68029236 45.15050842 -76.51559448 45.74319458 C-76.01715964 47.92489067 -75.82785166 49.87652459 -75.75048828 52.10888672 C-75.72006943 52.91382065 -75.68965057 53.71875458 -75.65830994 54.54808044 C-75.62927078 55.41651077 -75.60023163 56.2849411 -75.5703125 57.1796875 C-75.4987896 59.06243763 -75.42674701 60.94516807 -75.35424805 62.82788086 C-75.31729828 63.81464813 -75.28034851 64.80141541 -75.24227905 65.81808472 C-73.21807246 118.57966423 -67.38706801 172.33999399 -43 220 C-49.75706784 222.13276183 -56.663894 223.3458224 -63.625 224.625 C-64.83929687 224.85445312 -66.05359375 225.08390625 -67.3046875 225.3203125 C-68.47515625 225.536875 -69.645625 225.7534375 -70.8515625 225.9765625 C-72.44218506 226.27167725 -72.44218506 226.27167725 -74.06494141 226.57275391 C-76.76382809 226.96562129 -79.27853096 227.08227843 -82 227 C-99.56122925 187.24874836 -107.95259101 146.21733957 -111.6875 103.0625 C-111.74843842 102.36212616 -111.80937683 101.66175232 -111.87216187 100.94015503 C-113.67665476 79.85152178 -114.14047624 58.84848506 -114.0625 37.6875 C-114.05746836 35.27799574 -114.05290844 32.86849044 -114.04882812 30.45898438 C-114.0379695 24.63929982 -114.02136676 18.81965498 -114 13 C-83.38285851 2.58552884 -48.2449608 2.51026521 -16.26171875 0.515625 C-15.42778595 0.46271805 -14.59385315 0.4098111 -13.73464966 0.3553009 C-9.14626482 0.07891309 -4.59668057 -0.05071139 0 0 Z " fill="#30BBA2" transform="translate(585,258)"/>
<path d="M0 0 C12.08357494 -0.13608415 24.11731644 0.27499885 36.1875 0.8125 C37.67358765 0.8777739 37.67358765 0.8777739 39.18969727 0.94436646 C159.27586487 6.27586487 159.27586487 6.27586487 168 15 C168.11491683 17.45477791 168.16392091 19.88006057 168.16796875 22.3359375 C168.1721582 23.10520065 168.17634766 23.87446381 168.18066406 24.66703796 C168.19061612 27.23640816 168.19041417 29.80561329 168.1875 32.375 C168.18709213 33.7033638 168.18709213 33.7033638 168.18667603 35.05856323 C168.12008552 82.68462841 165.41517034 130.62058568 154 177 C146.63177688 171.85328235 141.94547354 163.77756995 136.81884766 156.54394531 C135.11265472 154.15756539 133.36370896 151.80905564 131.60546875 149.4609375 C130.58843443 148.03839293 129.57397479 146.61400294 128.5625 145.1875 C128.08409668 144.5685083 127.60569336 143.9495166 127.11279297 143.31176758 C122.67740359 136.83242381 124.05888957 130.46190219 125 123 C125.24479613 120.49529566 125.48433198 117.99007194 125.71875 115.484375 C125.97885536 112.90621857 126.23927938 110.32809428 126.5 107.75 C128.53677336 87.07483474 129.1443667 66.7843631 129 46 C82.08859772 41.2887045 35.14154834 38.67408913 -12 38 C-11.38494842 33.5684531 -10.28264415 29.62930222 -8.75 25.4296875 C-8.3065625 24.20378906 -7.863125 22.97789062 -7.40625 21.71484375 C-6.93780049 20.43478583 -6.46904752 19.15483892 -6 17.875 C-5.08065691 15.35252064 -4.16494657 12.82876977 -3.25 10.3046875 C-2.84265625 9.19077637 -2.4353125 8.07686523 -2.015625 6.92919922 C-1.21560268 4.62182714 -0.53249539 2.37958878 0 0 Z " fill="#32B990" transform="translate(649,256)"/>
<path d="M0 0 C3.55926116 1.18642039 4.2036745 2.24269348 6.4375 5.1875 C9.93431633 9.68340671 13.54241547 14.05316793 17.25 18.375 C17.75716553 18.96949951 18.26433105 19.56399902 18.78686523 20.17651367 C21.41791441 23.2402069 24.09336172 26.19024967 27 29 C25.38574128 33.57814359 23.01256867 37.47974106 20.4375 41.5625 C19.99204834 42.26995361 19.54659668 42.97740723 19.08764648 43.70629883 C2.65859289 69.49341594 -19.17600269 91.98539252 -43 111 C-44.14147109 111.93255908 -45.28204884 112.86621236 -46.421875 113.80078125 C-62.33278188 126.78527485 -79.38517059 138.11291293 -96.55224609 149.359375 C-98.00319107 150.33188151 -99.43685909 151.3325781 -100.82666016 152.390625 C-103.27137816 154.24299648 -104.58895127 155.01735465 -107.70043945 154.88598633 C-111.92123035 153.75263448 -114.89946173 151.76722783 -118.4609375 149.29296875 C-119.5232811 148.57201775 -119.5232811 148.57201775 -120.60708618 147.83650208 C-122.10811399 146.81494381 -123.6057216 145.78834433 -125.10009766 144.75708008 C-127.32641977 143.22101817 -129.56233647 141.69996557 -131.80078125 140.18164062 C-154.86184713 124.46631153 -176.76009898 107.22571483 -197 88 C-197.52996582 87.49871582 -198.05993164 86.99743164 -198.60595703 86.48095703 C-200.14338819 85.01833774 -201.66764676 83.54335667 -203.1875 82.0625 C-204.50814453 80.78052734 -204.50814453 80.78052734 -205.85546875 79.47265625 C-208.00170205 76.99803752 -208.87967559 75.03438303 -210 72 C-201.54109025 70.75779456 -193.07687089 69.58929655 -184.59863281 68.48828125 C-181.6237279 68.08463065 -178.67099002 67.62248782 -175.7109375 67.125 C-170.07134962 66.29960377 -165.75680893 65.88685867 -160.76953125 69.046875 C-158.11195369 71.33333222 -155.78261888 73.88509335 -153.44042969 76.48779297 C-151.13625765 78.90678307 -148.53447112 80.86215839 -145.875 82.875 C-145.34745117 83.27428711 -144.81990234 83.67357422 -144.27636719 84.08496094 C-132.39647049 93.01411225 -120.26699416 101.61249693 -108 110 C-101.79944801 106.72589796 -96.07761101 103.09715278 -90.4375 98.9375 C-89.66301514 98.37095703 -88.88853027 97.80441406 -88.09057617 97.22070312 C-86.49625487 96.05197834 -84.90387768 94.88059677 -83.31347656 93.70654297 C-81.14951146 92.11028758 -78.97788201 90.52505846 -76.8046875 88.94140625 C-55.63623173 73.41718662 -35.25846399 55.49437034 -20 34 C-19.58492187 33.4239502 -19.16984375 32.84790039 -18.7421875 32.25439453 C-11.45321674 22.05598413 -5.63592218 11.17942249 0 0 Z " fill="#2FBBA5" transform="translate(751,467)"/>
<path d="M0 0 C10.1165625 -0.0928125 10.1165625 -0.0928125 20.4375 -0.1875 C22.54825928 -0.21481201 24.65901855 -0.24212402 26.83374023 -0.27026367 C28.53368561 -0.27903728 30.23363737 -0.28667914 31.93359375 -0.29296875 C32.79440552 -0.30831665 33.65521729 -0.32366455 34.54211426 -0.33947754 C43.55422684 -0.34331411 50.65876343 1.81187517 57.2734375 8.03125 C62.23149951 13.68478677 64.34953469 20.3225804 64.2109375 27.79296875 C63.490407 35.33185265 60.14076963 41.52508035 55 47 C52.125 49 52.125 49 50 50 C51.34170276 53.62195045 52.96957433 56.75391362 55.0390625 60.01171875 C55.61914062 60.93404297 56.19921875 61.85636719 56.796875 62.80664062 C58.02316941 64.73910244 59.24973521 66.67139206 60.4765625 68.60351562 C61.0540625 69.52197266 61.6315625 70.44042969 62.2265625 71.38671875 C62.75846191 72.22420654 63.29036133 73.06169434 63.83837891 73.92456055 C65 76 65 76 65 78 C59.18416219 78.46140542 53.38559124 78.7253869 47.55078125 78.60546875 C46.59341064 78.58895264 45.63604004 78.57243652 44.6496582 78.55541992 C41.26259978 77.84542656 39.89890703 76.4967646 37.625 73.9375 C36.68876926 71.9865521 35.82123837 70.00207224 35 68 C33.94277713 65.96188059 32.83071702 63.96819616 31.68115234 61.98071289 C30.90802696 60.64332424 30.16458174 59.28822495 29.45556641 57.91577148 C28.31723886 55.74582155 28.31723886 55.74582155 26 53 C22.535 52.505 22.535 52.505 19 52 C19 60.58 19 69.16 19 78 C12.73 78 6.46 78 0 78 C0 52.26 0 26.52 0 0 Z M19 17 C19 22.94 19 28.88 19 35 C22.23057217 35.13523325 25.4554669 35.23421546 28.6875 35.3125 C29.59951172 35.35439453 30.51152344 35.39628906 31.45117188 35.43945312 C36.09298314 35.52384969 38.27893916 35.53354879 42.109375 32.69921875 C44.59382878 29.152199 44.68282582 27.24869399 44 23 C41.86320715 19.61060444 40.8225233 18.27417443 37 17 C35.59175107 16.91978001 34.18002769 16.89234023 32.76953125 16.90234375 C31.68442261 16.90609009 31.68442261 16.90609009 30.57739258 16.90991211 C29.20877075 16.92356812 29.20877075 16.92356812 27.8125 16.9375 C24.904375 16.958125 21.99625 16.97875 19 17 Z " fill="#31BA99" transform="translate(591,679)"/>
<path d="M0 0 C4.17467964 3.52618571 7.45428841 6.90437678 9.2890625 12.1640625 C9.2890625 13.1540625 9.2890625 14.1440625 9.2890625 15.1640625 C6.4991186 16.33500255 3.70727653 17.50097177 0.9140625 18.6640625 C0.12 18.99792969 -0.6740625 19.33179688 -1.4921875 19.67578125 C-2.25273438 19.99160156 -3.01328125 20.30742188 -3.796875 20.6328125 C-4.4986084 20.92607422 -5.2003418 21.21933594 -5.92333984 21.52148438 C-7.7109375 22.1640625 -7.7109375 22.1640625 -9.7109375 22.1640625 C-9.9584375 21.3803125 -10.2059375 20.5965625 -10.4609375 19.7890625 C-11.47203643 17.13648571 -11.47203643 17.13648571 -13.3984375 15.9140625 C-19.83104392 13.82781177 -24.3864263 14.27780477 -30.7109375 16.1640625 C-31.0409375 17.4840625 -31.3709375 18.8040625 -31.7109375 20.1640625 C-25.37327943 23.13080881 -18.9897066 24.65790619 -12.18164062 26.18164062 C-4.28746561 28.04228142 2.95833924 30.4880967 8.09375 37.0546875 C11.63576345 43.30529948 12.03849139 50.86865144 10.2890625 57.74609375 C7.41202789 64.70267352 2.33503123 69.05150543 -4.3984375 72.1640625 C-16.38753731 76.52236419 -29.4318286 76.25488088 -41.0859375 70.9765625 C-47.5505432 67.41739757 -51.2070585 63.20972344 -53.5859375 56.2265625 C-53.96662843 54.87398467 -54.34259727 53.5200558 -54.7109375 52.1640625 C-51.96356373 51.15629221 -49.21343798 50.15764804 -46.4609375 49.1640625 C-45.68363281 48.87789062 -44.90632812 48.59171875 -44.10546875 48.296875 C-43.35136719 48.02617188 -42.59726562 47.75546875 -41.8203125 47.4765625 C-41.12905273 47.22519531 -40.43779297 46.97382812 -39.72558594 46.71484375 C-37.7109375 46.1640625 -37.7109375 46.1640625 -33.7109375 46.1640625 C-33.4840625 46.9478125 -33.2571875 47.7315625 -33.0234375 48.5390625 C-31.94010417 51.36197917 -31.94010417 51.36197917 -29.2109375 52.4140625 C-28.3859375 52.6615625 -27.5609375 52.9090625 -26.7109375 53.1640625 C-26.0509375 53.4940625 -25.3909375 53.8240625 -24.7109375 54.1640625 C-22.9213906 54.26064122 -21.12808216 54.29386718 -19.3359375 54.2890625 C-18.37945313 54.29164063 -17.42296875 54.29421875 -16.4375 54.296875 C-14.02952896 54.17958128 -12.01103682 53.85082201 -9.7109375 53.1640625 C-9.7109375 51.5140625 -9.7109375 49.8640625 -9.7109375 48.1640625 C-15.37344463 45.47611452 -20.90953439 44.14165715 -27.0234375 42.8515625 C-44.11366014 38.94661788 -44.11366014 38.94661788 -49.40625 31.91015625 C-53.1240584 25.41922846 -53.94126911 19.18205786 -52.1640625 11.93359375 C-49.71478001 4.68099615 -45.80105352 0.71707694 -39.0546875 -2.765625 C-26.94245321 -8.29687866 -11.11068164 -7.52452503 0 0 Z " fill="#31BA99" transform="translate(846.7109375,683.8359375)"/>
<path d="M0 0 C6.93 0 13.86 0 21 0 C25.49966699 8.99933397 25.49966699 8.99933397 27.19482422 13.44360352 C27.57557098 14.43566299 27.95631775 15.42772247 28.34860229 16.44984436 C28.74661041 17.49893478 29.14461853 18.54802521 29.5546875 19.62890625 C29.97871857 20.7362059 30.40274963 21.84350555 30.83963013 22.98435974 C32.18858875 26.5089546 33.53204515 30.03561372 34.875 33.5625 C36.20882191 37.05610783 37.54381981 40.54926234 38.87969971 44.04208374 C39.73970773 46.29090841 40.59873226 48.54010945 41.45672607 50.78970337 C44.22034198 58.02053122 47.06980834 65.20827767 50.04345703 72.35522461 C51 75 51 75 51 78 C44.07 78 37.14 78 30 78 C28.73046875 74.94010417 27.4609375 71.88020833 26.19140625 68.8203125 C25.50456537 67.19441376 24.78934113 65.57868226 24 64 C15.09 63.67 6.18 63.34 -3 63 C-3.99 66.3 -4.98 69.6 -6 73 C-6.66 74.65 -7.32 76.3 -8 78 C-15.26 78 -22.52 78 -30 78 C-25.64606529 65.4468331 -20.98254167 53.05330753 -16.125 40.6875 C-15.44897909 38.95907809 -14.7731973 37.23056264 -14.09765625 35.50195312 C-9.45791569 23.64395482 -4.74002659 11.81825421 0 0 Z M10 29 C8.02 34.61 6.04 40.22 4 46 C8.29 46 12.58 46 17 46 C16.15813297 41.79066487 15.10885537 38.58732921 13.4375 34.6875 C12.98246094 33.61886719 12.52742187 32.55023437 12.05859375 31.44921875 C11.70925781 30.64097656 11.35992188 29.83273437 11 29 C10.67 29 10.34 29 10 29 Z " fill="#31BA99" transform="translate(528,679)"/>
<path d="M0 0 C7.26 0 14.52 0 22 0 C23.12019531 2.96226562 24.24039063 5.92453125 25.39453125 8.9765625 C26.48597695 11.85624534 27.57850743 14.73551439 28.67114258 17.61474609 C29.42781152 19.61040984 30.1833584 21.6064994 30.93774414 23.60302734 C32.02453048 26.47867689 33.11539082 29.35275269 34.20703125 32.2265625 C34.54152786 33.11429352 34.87602448 34.00202454 35.22065735 34.91665649 C36.93453782 39.41635099 38.74922261 43.74210178 41 48 C41.46897705 46.794646 41.9379541 45.58929199 42.42114258 44.34741211 C44.16994344 39.85361781 45.92031212 35.36043554 47.67114258 30.86743164 C48.42710105 28.92684179 49.18264053 26.98608866 49.93774414 25.04516602 C51.02639047 22.24712248 52.11656776 19.44967952 53.20703125 16.65234375 C53.54152786 15.7916478 53.87602448 14.93095184 54.22065735 14.04417419 C54.54076279 13.22385208 54.86086823 12.40352997 55.19067383 11.55834961 C55.46825027 10.84553329 55.74582672 10.13271698 56.03181458 9.39830017 C57.30479458 6.24499082 58.66045207 3.12561183 60 0 C66.93 0 73.86 0 81 0 C78.75003872 10.12482577 78.75003872 10.12482577 77.26342773 13.87939453 C76.93225449 14.72543243 76.60108124 15.57147034 76.25987244 16.44314575 C75.90470047 17.33073578 75.5495285 18.21832581 75.18359375 19.1328125 C74.8082399 20.08654755 74.43288605 21.04028259 74.04615784 22.0229187 C72.84950279 25.05945039 71.64375902 28.09227247 70.4375 31.125 C69.65497909 33.10522391 68.87307352 35.0856911 68.09179688 37.06640625 C66.53014166 41.02363984 64.96516748 44.97953687 63.39794922 48.93457031 C59.56740186 58.61080677 55.78725168 68.30675443 52 78 C44.74 78 37.48 78 30 78 C25.14263871 66.54911215 20.64536249 54.96201683 16.125 43.375 C15.33996344 41.36583864 14.55480792 39.35672377 13.76953125 37.34765625 C12.23904381 33.43150542 10.71098325 29.51442028 9.18457031 25.59667969 C7.75441914 21.92746544 6.31599775 18.26167597 4.87011719 14.59863281 C4.54147675 13.7628067 4.2128363 12.92698059 3.87423706 12.06582642 C3.26034432 10.50484382 2.64388779 8.94486621 2.02444458 7.38607788 C0 2.22534946 0 2.22534946 0 0 Z " fill="#31BA99" transform="translate(668,679)"/>
<path d="M0 0 C6.27 0 12.54 0 19 0 C19.14917269 7.75544983 19.25760997 15.51005044 19.32958984 23.26660156 C19.35962005 25.90086429 19.4004572 28.53502823 19.45263672 31.16894531 C19.52605411 34.97225423 19.55959666 38.77423265 19.5859375 42.578125 C19.61690521 43.74112122 19.64787292 44.90411743 19.67977905 46.10235596 C19.68353106 55.37715192 17.25542348 63.18425666 11.02230835 70.23809814 C4.0507617 76.93262893 -4.37468522 80.13306887 -14 80 C-23.29378107 79.08331446 -30.956195 75.91015028 -37.390625 69.0625 C-41.40202926 63.92167123 -44.38888684 58.62286069 -44 52 C-41.58424393 51.49521515 -39.16755639 50.99602358 -36.75 50.5 C-36.06808594 50.35691406 -35.38617188 50.21382812 -34.68359375 50.06640625 C-31.35366879 49.38748951 -28.41667449 49 -25 49 C-24.75765625 49.55429687 -24.5153125 50.10859375 -24.265625 50.6796875 C-23.93046875 51.40414062 -23.5953125 52.12859375 -23.25 52.875 C-22.92515625 53.59429688 -22.6003125 54.31359375 -22.265625 55.0546875 C-20.73140579 57.41283925 -19.63317464 58.06129972 -17 59 C-12.74740108 59.58577838 -9.05060699 59.42471347 -5.0625 57.8125 C-2.06043842 55.17432467 -1.15415989 52.40469644 -0.7215271 48.46257019 C-0.70820343 47.56766373 -0.69487976 46.67275726 -0.68115234 45.75073242 C-0.66128265 44.73005173 -0.64141296 43.70937103 -0.62094116 42.65776062 C-0.60361435 41.02312614 -0.60361435 41.02312614 -0.5859375 39.35546875 C-0.56657135 38.2305452 -0.5472052 37.10562164 -0.5272522 35.9466095 C-0.4675629 32.36031634 -0.42111306 28.77399091 -0.375 25.1875 C-0.33681047 22.75324136 -0.29775817 20.31899608 -0.2578125 17.88476562 C-0.16186986 11.92328593 -0.07779899 5.96174297 0 0 Z " fill="#31B999" transform="translate(467,679)"/>
<path d="M0 0 C6.6 0 13.2 0 20 0 C20 25.74 20 51.48 20 78 C13.4 78 6.8 78 0 78 C0 52.26 0 26.52 0 0 Z " fill="#31B999" transform="translate(761,679)"/>
<path d="M0 0 C2.31 0 4.62 0 7 0 C10.67131089 7.0634199 13.84929142 14.23916564 16.8125 21.625 C17.42254883 23.13126953 17.42254883 23.13126953 18.04492188 24.66796875 C19.03358142 27.1105394 20.01853938 29.55452997 21 32 C25.99253949 21.46649812 30.52711004 10.76193043 35 0 C37.31 0 39.62 0 42 0 C42 13.53 42 27.06 42 41 C40.35 41 38.7 41 37 41 C36.67 32.09 36.34 23.18 36 14 C35.21753906 15.86527344 34.43507813 17.73054687 33.62890625 19.65234375 C32.87118854 21.45279225 32.1134538 23.25323364 31.35522461 25.0534668 C30.8276507 26.30732816 30.30095469 27.56155927 29.77514648 28.81616211 C29.02036299 30.61668711 28.26218582 32.4157883 27.50390625 34.21484375 C27.04830322 35.29886475 26.5927002 36.38288574 26.12329102 37.49975586 C25 40 25 40 24 41 C22.02 41 20.04 41 18 41 C14.37 32.42 10.74 23.84 7 15 C6.67 23.58 6.34 32.16 6 41 C4.02 41 2.04 41 0 41 C0 27.47 0 13.94 0 0 Z " fill="#30B99A" transform="translate(757,786)"/>
<path d="M0 0 C2.97 0 5.94 0 9 0 C11.26894056 2.66213764 12.51587034 4.56165444 14 7.625 C14.82782951 9.17993264 15.65861592 10.73329426 16.4921875 12.28515625 C16.90307617 13.07164551 17.31396484 13.85813477 17.73730469 14.66845703 C19.68015568 18.25589457 21.88545642 21.65527112 24.125 25.0625 C25.40375 27.021875 26.6825 28.98125 28 31 C28.33 20.77 28.66 10.54 29 0 C30.98 0 32.96 0 35 0 C35 13.53 35 27.06 35 41 C26 41 26 41 23.98779297 39.33862305 C23.57674316 38.57074463 23.16569336 37.80286621 22.7421875 37.01171875 C22.26136719 36.15900391 21.78054688 35.30628906 21.28515625 34.42773438 C20.81980469 33.52345703 20.35445313 32.61917969 19.875 31.6875 C18.91586699 29.94041439 17.95491571 28.19432581 16.9921875 26.44921875 C16.00476563 24.65097656 15.01734375 22.85273437 14 21 C11.69 17.37 9.38 13.74 7 10 C6.67 20.23 6.34 30.46 6 41 C4.02 41 2.04 41 0 41 C0 27.47 0 13.94 0 0 Z " fill="#30B99A" transform="translate(382,786)"/>
<path d="M0 0 C8 0 8 0 9.8828125 1.5378418 C10.29273438 2.25109619 10.70265625 2.96435059 11.125 3.69921875 C11.60453125 4.49779297 12.0840625 5.29636719 12.578125 6.11914062 C13.28195312 7.39047852 13.28195312 7.39047852 14 8.6875 C14.70382812 9.88342773 14.70382812 9.88342773 15.421875 11.10351562 C16.9643251 13.72609543 18.48148969 16.36348648 20 19 C22.64 23.29 25.28 27.58 28 32 C28.33 21.44 28.66 10.88 29 0 C30.65 0 32.3 0 34 0 C34 13.53 34 27.06 34 41 C26 41 26 41 23.99365234 39.23095703 C23.52910645 38.41481934 23.06456055 37.59868164 22.5859375 36.7578125 C21.78542969 35.40429688 21.78542969 35.40429688 20.96875 34.0234375 C20.4428125 33.06695313 19.916875 32.11046875 19.375 31.125 C18.84132813 30.2071875 18.30765625 29.289375 17.7578125 28.34375 C16.74087989 26.59126904 15.73581808 24.83179709 14.74755859 23.06298828 C12.23876628 18.66576722 9.6046696 14.341116 7 10 C6.67 20.23 6.34 30.46 6 41 C4.02 41 2.04 41 0 41 C0 27.47 0 13.94 0 0 Z " fill="#31BA9A" transform="translate(942,786)"/>
<path d="M0 0 C2.64 0 5.28 0 8 0 C10.03065624 2.1020608 11.08848289 3.52540549 12.4296875 6.01953125 C12.79095734 6.63390549 13.15222717 7.24827972 13.52444458 7.88127136 C14.66988678 9.84338267 15.7723671 11.82607554 16.875 13.8125 C17.63787471 15.13765482 18.4034737 16.46124527 19.171875 17.78320312 C20.57830055 20.20919409 21.96729439 22.64353563 23.33935547 25.08911133 C24.4877588 27.10210941 25.71446013 29.07169019 27 31 C27.33 20.77 27.66 10.54 28 0 C29.98 0 31.96 0 34 0 C34 13.53 34 27.06 34 41 C26 41 26 41 23.93139648 39.22119141 C23.43712158 38.39796387 22.94284668 37.57473633 22.43359375 36.7265625 C21.86624512 35.81293945 21.29889648 34.89931641 20.71435547 33.95800781 C20.14861816 32.98186523 19.58288086 32.00572266 19 31 C18.41750488 30.04706055 17.83500977 29.09412109 17.23486328 28.11230469 C15.47699495 25.2180809 13.76476716 22.30228399 12.0625 19.375 C9.0615625 14.239375 9.0615625 14.239375 6 9 C5.67 19.56 5.34 30.12 5 41 C3.35 41 1.7 41 0 41 C0 27.47 0 13.94 0 0 Z " fill="#30B99A" transform="translate(471,786)"/>
<path d="M0 0 C3.3253161 1.81964722 5.73251889 4.01325722 7.6953125 7.24609375 C5.6328125 8.49609375 5.6328125 8.49609375 2.6953125 9.24609375 C0.99705007 8.26632697 -0.69830657 7.27878955 -2.34765625 6.21875 C-5.90427911 4.45108714 -9.4473748 4.6629299 -13.3046875 5.24609375 C-17.50609415 6.80217029 -20.00716872 8.37658843 -22.3046875 12.24609375 C-23.75401733 16.59408323 -23.82137815 20.7020472 -23.3046875 25.24609375 C-21.32332848 29.13804897 -19.20167792 32.18934881 -15.3046875 34.24609375 C-9.23320736 35.66277245 -4.79186366 35.3436932 0.6953125 32.24609375 C2.98506858 29.88247457 3.64899682 28.38504078 4.6953125 25.24609375 C0.0753125 25.24609375 -4.5446875 25.24609375 -9.3046875 25.24609375 C-9.3046875 23.59609375 -9.3046875 21.94609375 -9.3046875 20.24609375 C-2.7046875 20.24609375 3.8953125 20.24609375 10.6953125 20.24609375 C10.6953125 26.84609375 10.6953125 33.44609375 10.6953125 40.24609375 C8.7153125 40.24609375 6.7353125 40.24609375 4.6953125 40.24609375 C4.6953125 39.25609375 4.6953125 38.26609375 4.6953125 37.24609375 C3.87740234 37.67921875 3.87740234 37.67921875 3.04296875 38.12109375 C-3.98832851 41.58265548 -9.84457732 42.48216669 -17.4296875 40.24609375 C-23.2418291 37.79336999 -27.02701964 32.85698026 -29.7421875 27.30859375 C-31.1368397 19.71548735 -30.62590856 14.36285341 -26.87109375 7.484375 C-20.90216286 -1.04479557 -9.64220179 -3.15414398 0 0 Z " fill="#30B99A" transform="translate(559.3046875,786.75390625)"/>
<path d="M0 0 C8 0 8 0 10.31347656 2.29150391 C10.91643555 3.34257324 11.51939453 4.39364258 12.140625 5.4765625 C12.47495544 6.03942963 12.80928589 6.60229675 13.15374756 7.18222046 C14.21436569 8.98154218 15.23220897 10.80117635 16.25 12.625 C16.94776107 13.82842729 17.64825855 15.03027238 18.3515625 16.23046875 C19.65356059 18.4554463 20.93456169 20.68804456 22.20410156 22.93212891 C24.01638644 26.02799239 26.01012198 29.01518297 28 32 C28.33 21.44 28.66 10.88 29 0 C30.65 0 32.3 0 34 0 C34 13.53 34 27.06 34 41 C31.36 41 28.72 41 26 41 C23.63671875 38.5703125 23.63671875 38.5703125 21.6875 35.125 C21.32922119 34.51382324 20.97094238 33.90264648 20.60180664 33.27294922 C19.81527206 31.93057458 19.04032088 30.58136434 18.27539062 29.2265625 C16.44873906 26.0376149 14.5136547 22.91848193 12.58105469 19.79296875 C10.37097323 16.20536177 8.18827079 12.60095194 6 9 C5.67 19.56 5.34 30.12 5 41 C3.35 41 1.7 41 0 41 C0 27.47 0 13.94 0 0 Z " fill="#30BA9A" transform="translate(1097,786)"/>
<path d="M0 0 C3.34125 -0.061875 6.6825 -0.12375 10.125 -0.1875 C11.68758545 -0.22846802 11.68758545 -0.22846802 13.28173828 -0.27026367 C18.61507907 -0.31796522 22.41363731 -0.05022519 27 3 C30.21753841 6.64654353 30.50428139 10.14693802 30.37109375 14.83984375 C29.82621278 18.01162456 28.26944593 19.80147426 26 22 C26.268125 22.515625 26.53625 23.03125 26.8125 23.5625 C27.204375 24.366875 27.59625 25.17125 28 26 C28.53625 27.0725 29.0725 28.145 29.625 29.25 C31.21496542 33.58626933 31.24027781 36.43472166 31 41 C29.35 41 27.7 41 26 41 C25.76216797 40.00419922 25.76216797 40.00419922 25.51953125 38.98828125 C23.54408649 31.33232512 23.54408649 31.33232512 18 26 C13.94920137 25.30195115 10.12991726 25.13615112 6 25 C6 30.28 6 35.56 6 41 C4.02 41 2.04 41 0 41 C0 27.47 0 13.94 0 0 Z M6 5 C6 9.62 6 14.24 6 19 C8.41854446 19.13536629 10.82949783 19.23420279 13.25 19.3125 C13.93191406 19.35439453 14.61382812 19.39628906 15.31640625 19.43945312 C19.14859145 19.53246733 20.66175495 19.32019115 23.48828125 16.64453125 C25.22926708 14.12761312 25.22926708 14.12761312 24.9375 11.375 C23.64046113 8.0891682 22.13437309 6.56718655 19 5 C14.66396021 4.8606671 10.33919329 4.95745889 6 5 Z " fill="#30BA9A" transform="translate(327,786)"/>
<path d="M0 0 C5.32672424 3.1373503 8.64778442 8.81835326 10.5625 14.5625 C11.34353231 22.31274366 9.65347635 28.08876241 4.875 34.3125 C0.50012389 39.10762282 -4.49804689 40.64449042 -10.875 41 C-16.81327421 40.7440399 -21.98583933 38.97749053 -26.265625 34.76171875 C-30.62757794 29.30927758 -32.792856 24.05712795 -32.25 17 C-31.1257112 9.61717021 -27.92034404 5.73812187 -22.375 0.98046875 C-16.59217688 -3.25171833 -6.39811675 -2.72787924 0 0 Z M-23.7578125 9.328125 C-26.48736901 14.17642817 -27.05868879 18.06054218 -26.4375 23.5625 C-24.3752177 29.20664104 -21.2854596 31.90119023 -16.1875 34.875 C-12.06795314 35.90488672 -8.51522452 35.76839118 -4.4375 34.5625 C-0.31566147 32.03017954 2.76474608 29.10330568 4.5625 24.5625 C5.25429354 19.76016576 5.21012337 15.07929022 3 10.6875 C-0.31858197 6.43290773 -3.26540163 4.10709034 -8.64453125 3.18359375 C-14.83268229 2.85679191 -19.94076958 4.22367707 -23.7578125 9.328125 Z " fill="#30BA9B" transform="translate(722.4375,787.4375)"/>
<path d="M0 0 C5.89890919 4.494407 10.58152664 9.43481817 11.625 17 C11.80208674 24.18972174 10.20259747 29.42951519 5.625 35 C1.06765354 39.44049143 -3.52182774 41.06685405 -9.8125 41.3125 C-17.0477336 41.11826554 -22.26211293 37.99668509 -27.375 33 C-30.98416469 26.90175621 -32.58764176 21.02243752 -30.87890625 13.9453125 C-28.77111126 7.63383597 -24.89030556 3.67687038 -19.375 0 C-13.30683164 -2.02272279 -6.10032057 -1.80750239 0 0 Z M-22.6953125 9.5078125 C-25.75061398 14.10144759 -26.17331978 18.60887753 -25.375 24 C-23.68601415 28.87929246 -20.93740495 32.50059555 -16.375 35 C-11.58461226 36.52582721 -7.64914679 36.46760422 -3.0625 34.375 C1.35404732 31.83240602 4.00139583 28.87081252 5.625 24 C6.45808415 17.9660905 5.6569531 13.64955435 2.1015625 8.6640625 C-0.68766113 5.52065174 -3.38250667 4.28776412 -7.51171875 3.69140625 C-13.74886689 3.34195652 -18.51218694 4.73063361 -22.6953125 9.5078125 Z " fill="#30BA9A" transform="translate(1061.375,787)"/>
<path d="M0 0 C2.64 0 5.28 0 8 0 C9.63653202 3.94661321 11.27223622 7.89356825 12.90722656 11.84082031 C13.46169546 13.17912705 14.01637708 14.51734567 14.57128906 15.85546875 C16.38711266 20.23442241 18.19608592 24.61612559 20 29 C20.42345703 30.02512695 20.84691406 31.05025391 21.28320312 32.10644531 C21.64865234 33.00202148 22.01410156 33.89759766 22.390625 34.8203125 C22.70547852 35.58875488 23.02033203 36.35719727 23.34472656 37.14892578 C24 39 24 39 24 41 C22.02 41 20.04 41 18 41 C16.68 38.03 15.36 35.06 14 32 C7.4 31.67 0.8 31.34 -6 31 C-6.99 34.3 -7.98 37.6 -9 41 C-11.31 41 -13.62 41 -16 41 C-5.29949685 13.05485809 -5.29949685 13.05485809 0 0 Z M4 7 C3.20688633 8.72850345 2.4155741 10.45783354 1.625 12.1875 C1.18414063 13.15042969 0.74328125 14.11335937 0.2890625 15.10546875 C-2.19231861 20.3562193 -2.19231861 20.3562193 -3 26 C1.95 26 6.9 26 12 26 C11.04637378 23.39402144 10.08732872 20.79026349 9.125 18.1875 C8.85558594 17.44951172 8.58617187 16.71152344 8.30859375 15.95117188 C8.04433594 15.23896484 7.78007813 14.52675781 7.5078125 13.79296875 C7.26691895 13.1383667 7.02602539 12.48376465 6.77783203 11.80932617 C5.94473832 9.72104063 5.94473832 9.72104063 4 7 Z " fill="#2FB899" transform="translate(894,786)"/>
<path d="M0 0 C1.134375 0.020625 2.26875 0.04125 3.4375 0.0625 C7.07850466 6.94682676 9.98558543 14.09364116 12.86621094 21.31860352 C13.69354432 23.39013416 14.53008668 25.45779067 15.3671875 27.52539062 C15.89639146 28.84613067 16.42505707 30.16708658 16.953125 31.48828125 C17.43040039 32.67848877 17.90767578 33.86869629 18.39941406 35.0949707 C19.4375 38.0625 19.4375 38.0625 19.4375 41.0625 C17.4575 41.0625 15.4775 41.0625 13.4375 41.0625 C10.4375 34.4375 10.4375 34.4375 10.4375 31.0625 C0.5375 31.5575 0.5375 31.5575 -9.5625 32.0625 C-10.8825 35.0325 -12.2025 38.0025 -13.5625 41.0625 C-15.5425 41.0625 -17.5225 41.0625 -19.5625 41.0625 C-17.39234057 32.98868979 -14.39287816 25.28339419 -11.26416016 17.5456543 C-10.42724047 15.47461177 -9.59794988 13.40062759 -8.76953125 11.32617188 C-4.25102143 0.07457932 -4.25102143 0.07457932 0 0 Z M-0.5625 7.0625 C-1.73344005 9.8524439 -2.89940927 12.64428597 -4.0625 15.4375 C-4.39636719 16.2315625 -4.73023438 17.025625 -5.07421875 17.84375 C-5.54794922 18.98457031 -5.54794922 18.98457031 -6.03125 20.1484375 C-6.32451172 20.8501709 -6.61777344 21.5519043 -6.91992188 22.27490234 C-7.67525781 24.05958561 -7.67525781 24.05958561 -7.5625 26.0625 C-2.6125 26.0625 2.3375 26.0625 7.4375 26.0625 C5.57196958 19.439867 3.39344577 13.27448756 0.4375 7.0625 C0.1075 7.0625 -0.2225 7.0625 -0.5625 7.0625 Z " fill="#30BA9B" transform="translate(283.5625,785.9375)"/>
<path d="M0 0 C9.57 0 19.14 0 29 0 C29 1.65 29 3.3 29 5 C21.08 5 13.16 5 5 5 C5 9.29 5 13.58 5 18 C10.94 18 16.88 18 23 18 C23 19.65 23 21.3 23 23 C17.06 23 11.12 23 5 23 C5 27.29 5 31.58 5 36 C12.92 36 20.84 36 29 36 C29 37.65 29 39.3 29 41 C19.43 41 9.86 41 0 41 C0 27.47 0 13.94 0 0 Z " fill="#31B99A" transform="translate(211,786)"/>
<path d="M0 0 C3.92297686 1.82832316 5.71228072 3.18768625 7.44140625 7.2421875 C6.78140625 7.9021875 6.12140625 8.5621875 5.44140625 9.2421875 C2.77156216 8.95613278 1.08741638 8.03637943 -1.24609375 6.6796875 C-5.4990902 4.83404753 -8.98753571 4.49672821 -13.55859375 5.2421875 C-18.67622193 7.89577248 -21.73565317 10.77336576 -23.55859375 16.2421875 C-24.14339521 22.20716237 -22.90843994 26.37667319 -19.55859375 31.2421875 C-15.81709828 34.46403082 -11.44267495 35.39075271 -6.55859375 35.2421875 C-2.34533386 33.97820953 -0.18676663 33.0607158 2.50390625 29.5546875 C4.44140625 27.2421875 4.44140625 27.2421875 7.69140625 26.9296875 C8.59890625 27.0328125 9.50640625 27.1359375 10.44140625 27.2421875 C9.80602329 32.59229616 7.58540195 34.43591441 3.55078125 37.7265625 C-1.61420427 41.43770024 -7.36486656 42.19506861 -13.55859375 41.2421875 C-20.65216232 38.87766464 -24.85204847 35.69875024 -28.55859375 29.2421875 C-30.47421274 23.49533052 -30.77506324 16.4625507 -28.6171875 10.75 C-22.22853658 0.135627 -11.92619343 -3.53233821 0 0 Z " fill="#30BA9A" transform="translate(655.55859375,786.7578125)"/>
<path d="M0 0 C3.34125 -0.0825 6.6825 -0.165 10.125 -0.25 C11.16672363 -0.28641602 12.20844727 -0.32283203 13.28173828 -0.36035156 C19.03826195 -0.42900024 22.52067768 0.00907731 27 4 C29.79927794 6.93510788 30.41226807 8.90633704 30.375 12.9375 C30.23475955 17.08373941 29.82004136 19.79098741 27 23 C22.50317683 26.52591817 18.641168 26.3657842 13.1875 26.1875 C12.39923828 26.17396484 11.61097656 26.16042969 10.79882812 26.14648438 C8.86558831 26.11133456 6.93270318 26.05753361 5 26 C5 30.95 5 35.9 5 41 C3.35 41 1.7 41 0 41 C0 27.47 0 13.94 0 0 Z M5 5 C5 10.28 5 15.56 5 21 C7.206875 21.0825 9.41375 21.165 11.6875 21.25 C12.92886719 21.29640625 14.17023437 21.3428125 15.44921875 21.390625 C19.57570941 20.93666563 21.11971777 19.92303224 24 17 C25.16210219 14.60648505 25.16210219 14.60648505 25 12 C23.79342343 9.26932671 22.80273027 7.53947923 20.30859375 5.86328125 C17.20768074 4.70371818 14.54991267 4.80900175 11.25 4.875 C9.1875 4.91625 7.125 4.9575 5 5 Z " fill="#30BA9A" transform="translate(824,786)"/>
<path d="M0 0 C1.98 0 3.96 0 6 0 C6 11.88 6 23.76 6 36 C13.59 36 21.18 36 29 36 C29 37.65 29 39.3 29 41 C19.43 41 9.86 41 0 41 C0 27.47 0 13.94 0 0 Z " fill="#31B99A" transform="translate(157,786)"/>
<path d="M0 0 C1.65 0 3.3 0 5 0 C5 13.53 5 27.06 5 41 C3.35 41 1.7 41 0 41 C0 27.47 0 13.94 0 0 Z " fill="#31B99A" transform="translate(1001,786)"/>
<path d="M0 0 C1.65 0 3.3 0 5 0 C5 13.53 5 27.06 5 41 C3.35 41 1.7 41 0 41 C0 27.47 0 13.94 0 0 Z " fill="#31B99A" transform="translate(441,786)"/>
</svg>
